<svg width="97" height="73" viewBox="0 0 97 73" fill="none" xmlns="http://www.w3.org/2000/svg">
<rect width="97" height="73" fill="white"/>
<rect x="4" y="30" width="89" height="7" fill="#C6C6C6"/>
<rect x="20" y="30" width="58" height="7" fill="#009988"/>
<rect x="12.5447" y="42.2984" width="14.9529" height="5.34031" fill="#EEDD88"/>
<rect x="36.042" y="42.2984" width="14.9529" height="5.34031" fill="#EEDD88"/>
<line x1="27.4976" y1="45.0026" x2="36.0421" y2="45.0026" stroke="#8D7600"/>
<g opacity="0.44">
<rect x="4" y="54.0471" width="14.9529" height="5.34031" fill="#EEDD88"/>
<rect x="27.4973" y="54.0471" width="14.9529" height="5.34031" fill="#EEDD88"/>
<line x1="18.9529" y1="56.7513" x2="27.4974" y2="56.7513" stroke="#8D7600"/>
</g>
<rect x="46.7227" y="54.0471" width="14.9529" height="5.34031" fill="#EEDD88"/>
<rect x="70.22" y="54.0471" width="14.9529" height="5.34031" fill="#EEDD88"/>
<line x1="61.6755" y1="56.7513" x2="70.22" y2="56.7513" stroke="#8D7600"/>
<rect x="31.7695" y="63.6597" width="14.9529" height="5.34031" fill="#EEDD88"/>
<rect x="55.2668" y="63.6597" width="14.9529" height="5.34031" fill="#EEDD88"/>
<line x1="46.7224" y1="66.3639" x2="55.2669" y2="66.3639" stroke="#8D7600"/>
<rect x="54.199" y="42.2984" width="14.9529" height="5.34031" fill="#EEDD88"/>
<rect x="78.7644" y="42.2984" width="14.9529" height="5.34031" fill="#EEDD88"/>
<line x1="69.1519" y1="45.0026" x2="78.7644" y2="45.0026" stroke="#8D7600"/>
<path d="M52 56L46.4638 57.6383L50.6507 61.6136L52 56ZM22.5854 56.2795C22.7614 56.5405 22.9506 56.8055 23.1525 57.0726L23.9502 56.4695C23.7589 56.2165 23.5803 55.9662 23.4146 55.7205L22.5854 56.2795ZM24.4065 58.5699C24.8339 59.0329 25.2974 59.4924 25.7951 59.9389L26.4629 59.1945C25.9892 58.7696 25.548 58.3322 25.1412 57.8916L24.4065 58.5699ZM27.3077 61.17C27.8241 61.55 28.3683 61.9114 28.9386 62.2463L29.445 61.3841C28.906 61.0675 28.3905 60.7252 27.9004 60.3646L27.3077 61.17ZM30.6792 63.1434C31.2695 63.4064 31.8823 63.6387 32.5162 63.8334L32.8098 62.8774C32.2164 62.6952 31.6414 62.4773 31.0861 62.2299L30.6792 63.1434ZM34.4285 64.2892C35.0642 64.3977 35.7171 64.4667 36.3858 64.4906L36.4215 63.4913C35.7983 63.469 35.1897 63.4047 34.5967 63.3035L34.4285 64.2892ZM38.3526 64.4298C38.9889 64.3679 39.6367 64.2641 40.295 64.1142L40.073 63.1391C39.4558 63.2797 38.8498 63.3767 38.2557 63.4345L38.3526 64.4298ZM42.1729 63.568C42.768 63.3573 43.37 63.1082 43.9784 62.8182L43.548 61.9155C42.9703 62.191 42.4004 62.4266 41.8391 62.6254L42.1729 63.568ZM45.6933 61.8995C46.2336 61.578 46.7783 61.2236 47.3268 60.8345L46.7482 60.0189C46.2207 60.3931 45.6985 60.7328 45.182 61.0401L45.6933 61.8995ZM48.8609 59.6624C49.343 59.2675 49.8278 58.8453 50.315 58.3946L49.636 57.6605C49.1629 58.0981 48.6933 58.5071 48.2273 58.8887L48.8609 59.6624Z" fill="black"/>
<circle cx="22.5" cy="56.5" r="2.5" fill="#D05E5E"/>
<path d="M19.06 24.24C16.62 24.24 14.96 23.3 13.76 21.98L15.76 19.96C16.7 21.02 17.9 21.56 19.26 21.56C20.74 21.56 21.46 20.9 21.46 19.88C21.46 19.12 21.14 18.56 19.84 18.38L18.46 18.2C15.52 17.82 14.18 16.38 14.18 14.04C14.18 11.54 16.14 9.8 19.42 9.8C21.52 9.8 23.12 10.5 24.26 11.76L22.24 13.8C21.58 13.02 20.68 12.48 19.24 12.48C17.88 12.48 17.22 13 17.22 13.84C17.22 14.8 17.72 15.16 18.88 15.34L20.26 15.56C23.12 16.02 24.5 17.3 24.5 19.7C24.5 22.38 22.54 24.24 19.06 24.24ZM31.1005 24.24C27.9405 24.24 26.2005 22.1 26.2005 18.74C26.2005 15.38 27.9405 13.26 31.1005 13.26C33.2205 13.26 34.6805 14.28 35.3005 16L32.9005 17.04C32.7205 16.24 32.1405 15.6 31.1005 15.6C29.9005 15.6 29.2805 16.46 29.2805 17.78V19.74C29.2805 21.06 29.9005 21.9 31.1005 21.9C32.2805 21.9 32.7605 21.18 33.0605 20.34L35.3605 21.34C34.6605 23.34 33.1605 24.24 31.1005 24.24ZM46.5925 24H44.9525C43.8925 24 43.1325 23.28 42.9525 22.16H42.8325C42.5125 23.52 41.3525 24.24 39.7525 24.24C37.6525 24.24 36.4925 23 36.4925 21.18C36.4925 18.96 38.2125 17.9 40.9925 17.9H42.6525V17.24C42.6525 16.22 42.1525 15.58 40.9125 15.58C39.7325 15.58 39.1125 16.18 38.6525 16.82L36.8925 15.26C37.7325 14.02 38.9325 13.26 41.1325 13.26C44.0925 13.26 45.6125 14.62 45.6125 17.1V21.7H46.5925V24ZM40.8525 22.18C41.8325 22.18 42.6525 21.78 42.6525 20.82V19.58H41.2125C40.0725 19.58 39.4725 20 39.4725 20.76V21.06C39.4725 21.82 39.9725 22.18 40.8525 22.18ZM53.902 24H52.142C50.102 24 49.022 22.94 49.022 20.94V15.8H47.542V13.5H48.282C49.082 13.5 49.322 13.1 49.322 12.38V10.66H51.982V13.5H54.062V15.8H51.982V21.7H53.902V24ZM65.39 12.74H61.61V24H58.57V12.74H54.79V10.04H65.39V12.74ZM70.5097 18.88V24H67.4697V10.04H74.0897C76.6697 10.04 78.3097 11.84 78.3097 14.5C78.3097 16.38 77.4697 17.88 75.7697 18.52L78.5097 24H75.1297L72.6897 18.88H70.5097ZM70.5097 16.32H73.7097C74.6097 16.32 75.1697 15.84 75.1697 14.94V14.06C75.1697 13.16 74.6097 12.68 73.7097 12.68H70.5097V16.32Z" fill="#009988"/>
</svg>
